<?xml version="1.0" standalone="no"?>
<!DOCTYPE svg PUBLIC "-//W3C//DTD SVG 20010904//EN"
 "http://www.w3.org/TR/2001/REC-SVG-20010904/DTD/svg10.dtd">
<svg version="1.0" xmlns="http://www.w3.org/2000/svg"
 width="100.000000pt" height="100.000000pt" viewBox="0 0 100.000000 100.000000"
 preserveAspectRatio="xMidYMid meet">

<g transform="translate(0.000000,100.000000) scale(0.100000,-0.100000)"
fill="#000000" stroke="none">
<path d="M252 747 l-252 -252 245 -245 245 -245 253 253 252 252 -245 245
-245 245 -253 -253z m480 -479 l-242 -243 -101 101 -101 101 27 88 c21 71 24
90 13 96 -22 15 -38 10 -100 -27 -80 -49 -86 -36 -6 15 60 39 66 41 136 39 59
-2 72 -6 72 -19 0 -10 7 -16 17 -15 11 1 35 -30 71 -89 l54 -90 38 3 c28 3 40
9 43 24 4 13 2 17 -6 10 -14 -10 -27 -10 -44 1 -9 6 -11 3 -7 -7 22 -57 -53
38 -94 119 -8 15 1 5 43 -45 21 -25 42 -46 46 -46 5 -1 10 -2 12 -4 9 -7 38
-7 43 1 3 5 9 7 14 4 18 -11 40 44 34 83 -4 27 -1 49 11 72 19 36 16 37 -40
14 -18 -7 -18 -6 -6 9 7 9 24 17 37 17 27 0 32 23 13 64 -10 20 -8 29 10 54
26 37 26 39 1 97 l-20 47 -43 -33 c-23 -18 -48 -37 -56 -43 -11 -9 -12 -5 -6
24 7 35 7 35 -13 16 -21 -18 -21 -18 -16 20 l6 39 -28 -40 -27 -39 -54 59
c-98 108 -97 98 -22 169 l64 61 235 -232 235 -233 -243 -242z m-349 524 l7
-32 -30 22 c-28 20 -29 23 -13 40 20 22 28 15 36 -30z m127 -127 c0 -5 -4 -16
-9 -23 -6 -11 -23 -6 -79 22 l-71 36 -7 -45 c-8 -57 -5 -65 48 -105 l43 -32
-43 41 c-39 39 -42 45 -36 81 l6 39 68 -34 67 -34 18 40 c24 51 36 59 28 17
l-6 -33 22 25 22 25 -6 -28 c-5 -26 -4 -28 16 -22 18 6 20 4 14 -14 -5 -17 -2
-21 17 -21 22 -1 22 -1 -5 -18 -23 -14 -27 -21 -20 -42 10 -36 10 -240 -1
-240 -5 0 -34 27 -63 60 -31 34 -63 60 -74 60 -10 0 -19 7 -19 15 0 8 -9 15
-20 15 -14 0 -18 5 -14 18 5 15 4 15 -6 -1 -9 -14 -23 -18 -63 -16 -46 2 -60
-3 -120 -41 l-68 -43 -44 43 c-32 31 -41 47 -37 63 4 18 2 20 -8 10 -10 -10
-17 -10 -27 -1 -12 9 3 29 79 105 51 51 98 93 105 93 7 0 13 6 13 13 0 7 20
33 45 57 l45 44 45 -33 c25 -18 45 -31 45 -29 0 2 -4 19 -10 38 -9 34 -7 33
50 -30 33 -36 59 -69 60 -75z m188 -1 c9 -18 9 -31 2 -45 -11 -19 -11 -19 -40
3 l-30 22 22 23 c27 29 32 29 46 -3z m-2 -141 c19 -26 17 -33 -11 -33 -14 0
-25 -4 -25 -10 0 -5 -4 -10 -10 -10 -14 0 -13 43 2 58 17 17 28 15 44 -5z
m-56 -203 c0 -5 -2 -10 -4 -10 -3 0 -8 5 -11 10 -3 6 -1 10 4 10 6 0 11 -4 11
-10z m35 0 c-3 -5 -11 -10 -16 -10 -6 0 -7 5 -4 10 3 6 11 10 16 10 6 0 7 -4
4 -10z"/>
<path d="M277 647 c-3 -8 -2 -19 3 -26 5 -9 9 -7 13 8 6 23 -8 39 -16 18z"/>
<path d="M374 628 c-5 -17 1 -28 27 -49 l34 -28 17 22 c10 12 18 24 18 27 0 5
-75 50 -84 50 -2 0 -8 -10 -12 -22z"/>
<path d="M170 620 c-12 -7 -12 -12 -3 -21 10 -10 14 -9 19 5 8 22 2 27 -16 16z"/>
<path d="M247 563 c-4 -3 -7 -11 -7 -17 0 -6 5 -5 12 2 6 6 9 14 7 17 -3 3 -9
2 -12 -2z"/>
<path d="M501 511 c-26 -37 -26 -52 0 -85 24 -30 29 -31 55 -10 18 14 18 15
-4 4 -26 -13 -37 -8 -54 23 -10 19 -9 20 4 9 9 -7 30 -11 47 -10 24 2 31 7 30
23 0 11 -3 14 -6 8 -3 -10 -10 -10 -25 -2 -11 6 -29 9 -39 6 -23 -6 -23 -3 -3
28 20 31 42 32 54 3 5 -14 9 -17 9 -7 1 18 -18 39 -35 39 -7 0 -22 -13 -33
-29z"/>
<path d="M147 493 c-13 -13 -7 -32 8 -27 8 4 15 12 15 20 0 15 -12 19 -23 7z"/>
<path d="M227 463 c-4 -3 -7 -11 -7 -17 0 -6 5 -5 12 2 6 6 9 14 7 17 -3 3 -9
2 -12 -2z"/>
</g>
</svg>
